# xmcd CD database file
#
# Track frame offsets:
#	150
#	19185
#	36592
#
# Disc length: 763 seconds
#
# Revision: 2
# Processed by: cddbd v1.5.1PL0 Copyright (c) Steve Scherf et al.
# Submitted via: CDex 1.51
#
DISCID=2102f903
DTITLE=中田あすみ(七海るちあ) - Splash Dream
DYEAR=1900
DGENRE=Anime
TTITLE0=Splash Dream
TTITLE1=Super Love Songs!(るちあソロ)
TTITLE2=Legend Of Mermaid(るちあソロ)
EXTD=
EXTT0=
EXTT1=
EXTT2=
PLAYORDER=
